<svg xmlns="http://www.w3.org/2000/svg" xmlns:xlink="http://www.w3.org/1999/xlink" width="120" zoomAndPan="magnify" viewBox="0 0 90 269.999989" height="360" preserveAspectRatio="xMidYMid meet" version="1.0"><defs><g/></defs><g fill="#ffffff" fill-opacity="1"><g transform="translate(0.00000183333, 105.749992)"><g><path d="M 67.75 -61.3125 L 77.125 -61.3125 L 80.640625 -65.75 C 84.097656 -62.582031 85.828125 -60.671875 85.828125 -60.015625 C 85.828125 -59.691406 85.609375 -59.394531 85.171875 -59.125 L 82.8125 -57.484375 L 82.8125 2.75 L 77.796875 2.75 L 77.796875 -5.90625 L 66.953125 -5.90625 L 66.953125 4.359375 L 61.84375 4.359375 L 61.84375 -64.234375 C 61.875 -64.210938 62.082031 -64.109375 62.46875 -63.921875 C 62.757812 -63.804688 63.066406 -63.691406 63.390625 -63.578125 C 64.992188 -62.835938 66.445312 -62.082031 67.75 -61.3125 Z M 66.953125 -59.046875 L 66.953125 -8.171875 L 77.796875 -8.171875 L 77.796875 -59.046875 Z M 37.578125 -51.75 L 26.21875 -51.75 L 25.453125 -54.0625 L 37.578125 -54.0625 L 37.578125 -74.1875 C 43.421875 -74.1875 46.34375 -73.492188 46.34375 -72.109375 C 46.34375 -71.304688 45.1875 -70.445312 42.875 -69.53125 L 42.875 -54.328125 L 50.15625 -54.328125 L 53.53125 -58.734375 C 56.96875 -55.710938 58.6875 -53.816406 58.6875 -53.046875 C 58.6875 -52.773438 58.507812 -52.492188 58.15625 -52.203125 L 55.890625 -50.640625 L 55.890625 -43.765625 C 55.796875 -19.117188 54.757812 -4.738281 52.78125 -0.625 C 51.414062 2.21875 48.46875 3.816406 43.9375 4.171875 C 43.9375 2.453125 43.125 1.179688 41.5 0.359375 C 40.394531 -0.171875 38.453125 -0.707031 35.671875 -1.25 L 35.671875 -3.640625 C 39.140625 -3.015625 41.894531 -2.703125 43.9375 -2.703125 C 46.84375 -2.703125 48.515625 -4.035156 48.953125 -6.703125 C 50.023438 -13.960938 50.601562 -26.773438 50.6875 -45.140625 L 50.6875 -52.015625 L 42.875 -52.015625 C 42.78125 -39.015625 41.742188 -28.53125 39.765625 -20.5625 C 37.128906 -9.90625 31.722656 -0.859375 23.546875 6.578125 L 21.859375 4.9375 C 29.023438 -3.445312 33.660156 -13.859375 35.765625 -26.296875 C 36.972656 -33.765625 37.578125 -42.25 37.578125 -51.75 Z M 20.03125 -37.765625 L 20.03125 -16.03125 C 22.9375 -16.976562 26.695312 -18.519531 31.3125 -20.65625 L 32.03125 -18.484375 C 24.476562 -13.828125 17.101562 -9.914062 9.90625 -6.75 C 9.632812 -4.382812 9.117188 -3.203125 8.359375 -3.203125 C 7.171875 -3.203125 5.628906 -5.6875 3.734375 -10.65625 C 7.140625 -11.664062 10.5625 -12.71875 14 -13.8125 L 14.84375 -14.21875 L 14.84375 -37.765625 L 5.546875 -37.765625 L 4.9375 -40.03125 L 14.84375 -40.03125 L 14.84375 -62.234375 L 4.625 -62.234375 L 3.90625 -64.5 L 22.296875 -64.5 L 26.5625 -70.234375 C 28.632812 -68.160156 30.515625 -66.070312 32.203125 -63.96875 L 31.140625 -62.234375 L 20.03125 -62.234375 L 20.03125 -40.03125 L 22.390625 -40.03125 L 26.390625 -45.9375 C 28.046875 -44.125 29.75 -41.976562 31.5 -39.5 L 30.390625 -37.765625 Z M 20.03125 -37.765625 "/></g></g></g><g fill="#ffffff" fill-opacity="1"><g transform="translate(0.00000183333, 232.499982)"><g><path d="M 47.1875 -39.9375 L 47.1875 -53.9375 L 31.984375 -53.9375 L 30.96875 -56.25 L 47.1875 -56.25 L 47.1875 -74.0625 C 53.25 -73.96875 56.28125 -73.238281 56.28125 -71.875 C 56.28125 -71.195312 55.007812 -70.441406 52.46875 -69.609375 L 52.46875 -25.28125 C 52.46875 -9.757812 45.34375 0.8125 31.09375 6.4375 L 29.8125 4.359375 C 40.175781 -1.453125 45.90625 -9.941406 47 -21.109375 C 43.332031 -18.492188 39.050781 -15.914062 34.15625 -13.375 C 34.070312 -10.882812 33.644531 -9.640625 32.875 -9.640625 C 31.6875 -9.640625 30.265625 -12.066406 28.609375 -16.921875 C 34.953125 -18.785156 41.144531 -21.273438 47.1875 -24.390625 L 47.1875 -37.671875 L 32.78125 -37.671875 L 31.8125 -39.9375 Z M 21.453125 -41.046875 L 21.453125 -21.40625 C 24.679688 -22.625 28.875 -24.375 34.03125 -26.65625 L 34.828125 -24.5625 C 26.648438 -19.4375 18.671875 -15.203125 10.890625 -11.859375 C 10.523438 -9.367188 9.972656 -8.125 9.234375 -8.125 C 8.140625 -8.125 6.628906 -10.644531 4.703125 -15.6875 C 8.878906 -16.863281 12.613281 -18.078125 15.90625 -19.328125 L 16.265625 -19.421875 L 16.265625 -41.046875 L 6.796875 -41.046875 L 6.09375 -43.3125 L 16.265625 -43.3125 L 16.265625 -63.53125 L 5.59375 -63.53125 L 4.703125 -65.796875 L 23.8125 -65.796875 L 27.8125 -71.34375 C 30.238281 -68.914062 32.0625 -66.859375 33.28125 -65.171875 L 32.296875 -63.53125 L 21.453125 -63.53125 L 21.453125 -43.3125 L 23.8125 -43.3125 L 27.640625 -48.6875 C 29.585938 -46.53125 31.171875 -44.53125 32.390625 -42.6875 L 31.453125 -41.046875 Z M 66.109375 -37.671875 L 66.109375 -21.640625 L 76.109375 -21.640625 L 80.59375 -27.640625 C 83.132812 -25.265625 85.132812 -23.023438 86.59375 -20.921875 L 85.65625 -19.375 L 66.109375 -19.375 L 66.109375 5.28125 L 60.734375 5.28125 L 60.734375 -74.0625 C 66.679688 -73.882812 69.65625 -73.128906 69.65625 -71.796875 C 69.65625 -71.171875 68.472656 -70.441406 66.109375 -69.609375 L 66.109375 -56.25 L 75.484375 -56.25 L 79.75 -62.0625 C 81.789062 -60.28125 83.726562 -58.117188 85.5625 -55.578125 L 84.671875 -53.9375 L 66.109375 -53.9375 L 66.109375 -39.9375 L 74.859375 -39.9375 L 79.125 -45.3125 C 81.195312 -43.332031 82.988281 -41.304688 84.5 -39.234375 L 83.5625 -37.671875 Z M 66.109375 -37.671875 "/></g></g></g></svg>